# xmcd
# 
# Track frame offsets:
#     150
#     16388
#     31968
#     53665
#     60903
#     80045
#     96665
#     116590
#     132425
#     140270
#     160415
#     166110
#     174328
#     180413
#     198100
#     215920
#     243295
#     278925
#     292875
#     293175
#     324050
#     336105
#     353080
# 
# Disc length: 4725
# 
# Revision: 0
# Processed by: cddbd v1.5.2PL0 Copyright (c) Steve Scherf et al.
# Submitted via: BonkEnc v1.0.8
# 
DISCID=4a127317
DTITLE=The Sons of Emperor Norton - The Putrid Minds Anthology: Battle Hymns for the Blue States
DYEAR=2005
DGENRE=Country
TTITLE0=Putrid Minds (I think we stopped the clock way back at Wounded Knee)
TTITLE1=Compared To What
TTITLE2=Killing For The Oil Companies
TTITLE3=The Irrational Anthem
TTITLE4=Ol' E's Comin' Back
TTITLE5=He Hums a Sad, Sweet Song
TTITLE6=Plain Out of Luck
TTITLE7=They Spent All Their Money on Their Health (and drove drunk)
TTITLE8=Everything Sucks
TTITLE9=Deng Xiao Ping
TTITLE10=The National Anthem (public domain)
TTITLE11=Twain, Norton, and the Professor
TTITLE12=The Star Spangled Boner
TTITLE13=The Emperor and The King
TTITLE14=Hey, Hey, Hey, Hey (mushroom cloud)
TTITLE15=Sad and Lonely
TTITLE16=Oy Gevalt
TTITLE17=Hi-Fi
TTITLE18=Smash the Corporate Oligarchy
TTITLE19=Putrid Minds (extended jam)
TTITLE20=Amazing Grace
TTITLE21=The Sons of Emperor Norton
TTITLE22=The John Wilkes Booth Fully Privatized Chief Executive Retirement Plan (Why bother with another over-regulated, inefficient, gov't run system?)
EXTD=
EXTT0=
EXTT1=
EXTT2=
EXTT3=
EXTT4=
EXTT5=
EXTT6=
EXTT7=
EXTT8=
EXTT9=
EXTT10=
EXTT11=
EXTT12=
EXTT13=
EXTT14=
EXTT15=
EXTT16=
EXTT17=
EXTT18=
EXTT19=
EXTT20=
EXTT21=
EXTT22=
PLAYORDER=
